<?xml version="1.0" encoding="utf-8"?>
<!-- Generator: Adobe Illustrator 19.0.0, SVG Export Plug-In . SVG Version: 6.00 Build 0)  -->
<svg version="1.1" id="Camada_1" xmlns="http://www.w3.org/2000/svg" xmlns:xlink="http://www.w3.org/1999/xlink" x="0px" y="0px"
	 viewBox="0 0 91 71.5" style="enable-background:new 0 0 91 71.5;" xml:space="preserve">
<style type="text/css">
	.st0{fill-rule:evenodd;clip-rule:evenodd;fill:#FFFFFF;}
</style>
<g>
	<path class="st0" d="M9.2,17.1c-1.2,2.5-1.8,5.2-1.8,8v24c0,3.1,0.8,6.1,2.2,8.8l16.3-19.6L9.2,17.1L9.2,17.1z M9.4,61.2
		C9.4,61.2,9.4,61.2,9.4,61.2c-0.4,0-0.8-0.2-1-0.5c-2.2-3.4-3.4-7.4-3.4-11.5v-24c0-3.8,1-7.5,2.9-10.8c0.2-0.3,0.5-0.5,0.9-0.6
		c0.4,0,0.8,0.1,1,0.4l18.4,23.4c0.3,0.4,0.3,1.1,0,1.5l-18,21.6C10.1,61,9.8,61.2,9.4,61.2z"/>
	<path class="st0" d="M15.4,9.8l30.7,39.1L76.5,9.5c-2.7-1.7-5.8-2.6-9-2.6H24.9C21.5,6.9,18.3,7.9,15.4,9.8L15.4,9.8z M46.2,52
		c-0.4,0-0.7-0.2-0.9-0.4L13,10.5c0,0-0.1-0.1-0.1-0.1c-0.2-0.2-0.3-0.6-0.3-0.9c0-0.3,0.2-0.6,0.4-0.8c3.4-2.7,7.6-4.1,11.9-4.1
		h42.6c4.1,0,8.1,1.3,11.4,3.8c0.3,0.2,0.5,0.6,0.5,0.9c0,0.4-0.1,0.7-0.4,0.9c-0.2,0.1-0.3,0.3-0.4,0.4L47.1,51.5
		C46.9,51.8,46.5,52,46.2,52C46.2,52,46.2,52,46.2,52z"/>
	<path class="st0" d="M66.1,38.5l16.6,19.8c1.5-2.8,2.4-5.9,2.4-9.2v-24c0-3-0.7-6-2.1-8.6L66.1,38.5L66.1,38.5z M82.8,61.5
		c-0.3,0-0.7-0.2-0.9-0.4L63.7,39.2c-0.4-0.4-0.4-1,0-1.5l18.5-24c0.2-0.3,0.6-0.5,1-0.5c0.4,0,0.7,0.2,0.9,0.5
		c2.1,3.4,3.3,7.3,3.3,11.3v24c0,4.3-1.2,8.3-3.6,11.8C83.5,61.3,83.2,61.4,82.8,61.5C82.8,61.5,82.8,61.5,82.8,61.5z"/>
	<path class="st0" d="M16.1,64.9c2.7,1.6,5.7,2.5,8.8,2.5h42.6c3,0,5.9-0.8,8.5-2.3l-15.8-19L49.9,59.4c-0.9,1.2-2.2,1.8-3.7,1.8
		c-1.5,0-2.8-0.7-3.7-1.8L31.9,46L16.1,64.9L16.1,64.9z M67.5,69.7H24.9c-4,0-7.9-1.3-11.2-3.6c-0.3-0.2-0.4-0.5-0.5-0.8
		c0-0.3,0.1-0.6,0.3-0.9l17.6-21c0.2-0.3,0.6-0.4,0.9-0.4c0.4,0,0.7,0.2,0.9,0.4L44.3,58c0.5,0.6,1.1,0.9,1.9,0.9
		c0.7,0,1.4-0.3,1.9-0.9l11.1-14.5c0.2-0.3,0.5-0.5,0.9-0.5c0.3,0,0.7,0.1,0.9,0.4l16.9,20.2l1.8-1.5c0.5-0.4,1.2-0.4,1.6,0.1
		c0.4,0.5,0.4,1.2,0,1.6C77.6,67.7,72.7,69.7,67.5,69.7z"/>
</g>
</svg>
