<?xml version="1.0" encoding="utf-8"?>
<!-- Generator: Adobe Illustrator 19.0.0, SVG Export Plug-In . SVG Version: 6.00 Build 0)  -->
<svg version="1.1" id="Camada_1_1_" xmlns="http://www.w3.org/2000/svg" xmlns:xlink="http://www.w3.org/1999/xlink" x="0px"
	 y="0px" viewBox="0 0 14.1 19.6" style="enable-background:new 0 0 14.1 19.6;" xml:space="preserve">
<style type="text/css">
	.st0{fill-rule:evenodd;clip-rule:evenodd;fill:#FFFFFF;}
</style>
<path class="st0" d="M5.6,7c0-0.6,0.1-1,0.4-1.3c0.3-0.4,0.7-0.6,1.2-0.6c0.4,0,0.7,0.1,1,0.3c0.2,0.2,0.3,0.5,0.3,0.9
	c0,0.9-0.5,1.4-1.1,2.1c-0.7,0.8-1.5,1.7-1.6,3.5h3.5c0.1-1.1,0.8-1.9,1.6-2.7c0.9-0.9,1.9-2,1.9-3.8c0-1.3-0.5-2.3-1.4-3
	c-0.9-0.7-2.2-1.1-3.9-1.1c-1.8,0-3.2,0.5-4.2,1.5C2.5,3.8,1.9,5.2,1.9,7H5.6L5.6,7z M6.3,5.9C6.1,6.2,6,6.6,6,7.2v0.2H1.4V7.2
	c0-2,0.6-3.6,1.6-4.7c1.1-1.1,2.6-1.7,4.5-1.7c1.8,0,3.2,0.4,4.2,1.2c1,0.8,1.5,1.9,1.5,3.4c0,2-1.1,3.1-2.1,4.1
	c-0.8,0.8-1.5,1.5-1.5,2.6v0.2H5.3v-0.2C5.3,10,6.2,8.9,7,8c0.5-0.6,0.9-1,0.9-1.7c0-0.3-0.1-0.5-0.2-0.6C7.6,5.6,7.4,5.5,7.1,5.5
	C6.7,5.5,6.5,5.7,6.3,5.9L6.3,5.9z M7.4,13.6c-0.7,0-1.2,0.2-1.6,0.6c-0.4,0.4-0.6,0.9-0.6,1.6c0,0.7,0.2,1.2,0.6,1.6
	c0.4,0.4,0.9,0.6,1.6,0.6c0.7,0,1.2-0.2,1.6-0.6c0.4-0.4,0.6-0.9,0.6-1.6c0-0.7-0.2-1.2-0.6-1.6C8.6,13.9,8.1,13.6,7.4,13.6
	L7.4,13.6z M5.5,13.9c0.5-0.5,1.1-0.8,1.9-0.8c0.8,0,1.5,0.3,2,0.8c0.5,0.5,0.8,1.1,0.8,1.9c0,0.8-0.3,1.5-0.8,2
	c-0.5,0.5-1.2,0.8-2,0.8c-0.8,0-1.5-0.3-1.9-0.8c-0.5-0.5-0.8-1.2-0.8-2C4.7,15.1,5,14.4,5.5,13.9z"/>
</svg>
