<?xml version="1.0" encoding="iso-8859-1"?>
<!-- Generator: Adobe Illustrator 19.0.0, SVG Export Plug-In . SVG Version: 6.00 Build 0)  -->
<svg version="1.1" id="Capa_1" xmlns="http://www.w3.org/2000/svg" xmlns:xlink="http://www.w3.org/1999/xlink" x="0px" y="0px"
	 viewBox="0 0 480 480" style="enable-background:new 0 0 480 480;" xml:space="preserve">
<g>
	<g>
		<path d="M438.68,329.568c-5.912-4.992-13.712-7.072-21.304-5.752L258.72,351.408l-45.064-45.064
			C212.16,304.84,210.128,304,208,304h-80H96H0v16h88v96H0v16h96h32h22.112l85.528,42.768c3.696,1.848,7.704,2.776,11.696,2.776
			c4.552,0,9.096-1.192,13.168-3.568L435.032,372.16c8-4.664,12.968-13.312,12.968-22.576C448,341.848,444.6,334.552,438.68,329.568
			z M120,416h-16v-96h16V416z M426.968,358.336l-174.52,101.816c-2.96,1.728-6.56,1.84-9.648,0.304l-87.216-43.608
			C154.472,416.288,153.24,416,152,416h-16v-96h68.688l63.032,63.032c2.72,2.72,4.28,6.488,4.28,10.344
			c0,8.064-6.56,14.624-14.624,14.624c-3.848,0-7.624-1.56-10.344-4.28l-41.376-41.376l-11.312,11.312l41.376,41.376
			c5.784,5.784,13.472,8.968,21.656,8.968c16.88,0,30.624-13.744,30.624-30.624c0-8.176-3.184-15.872-8.968-21.656l-6.48-6.48
			l147.552-25.664c2.976-0.536,5.976,0.296,8.272,2.232c2.304,1.936,3.624,4.768,3.624,7.768
			C432,353.168,430.072,356.528,426.968,358.336z"/>
	</g>
</g>
<g>
	<g>
		<path d="M304,0c-61.76,0-112,50.24-112,112v32v8v24v8v32h0.408c4.128,58.024,52.536,104,111.592,104
			c59.056,0,107.464-45.976,111.592-104H416v-32v-8v-24v-8v-32C416,50.24,365.76,0,304,0z M304,16
			c40.344,0,74.888,25.048,89.072,60.376C372.6,49.472,340.344,32,304,32s-68.6,17.472-89.072,44.376
			C229.112,41.048,263.656,16,304,16z M304,48c40.344,0,74.888,25.048,89.072,60.376C372.6,81.472,340.344,64,304,64
			s-68.6,17.472-89.072,44.376C229.112,73.048,263.656,48,304,48z M393.072,140.376C372.6,113.472,340.344,96,304,96
			s-68.6,17.472-89.072,44.376C229.112,105.048,263.656,80,304,80S378.888,105.048,393.072,140.376z M304,304
			c-52.936,0-96-43.064-96-96c0-52.936,43.064-96,96-96c52.936,0,96,43.064,96,96C400,260.936,356.936,304,304,304z"/>
	</g>
</g>
<g>
	<g>
		<path d="M304,128c-44.112,0-80,35.888-80,80s35.888,80,80,80s80-35.888,80-80S348.112,128,304,128z M304,272
			c-35.288,0-64-28.712-64-64c0-35.288,28.712-64,64-64c35.288,0,64,28.712,64,64C368,243.288,339.288,272,304,272z"/>
	</g>
</g>
<g>
	<g>
		<path d="M304,200c-4.416,0-8-3.584-8-8s3.584-8,8-8c4.416,0,8,3.584,8,8h16c0-10.416-6.712-19.216-16-22.528V160h-16v9.472
			c-9.288,3.312-16,12.112-16,22.528c0,13.232,10.768,24,24,24c4.416,0,8,3.584,8,8s-3.584,8-8,8c-4.416,0-8-3.584-8-8h-16
			c0,10.416,6.712,19.216,16,22.528V256h16v-9.472c9.288-3.312,16-12.112,16-22.528C328,210.768,317.232,200,304,200z"/>
	</g>
</g>
<g>
	<g>
		<path d="M152,224h-16c0,13.232-10.768,24-24,24v16c13.232,0,24,10.768,24,24h16c0-13.232,10.768-24,24-24v-16
			C162.768,248,152,237.232,152,224z M144,264.248c-2.336-3.144-5.104-5.912-8.248-8.248c3.144-2.336,5.912-5.104,8.248-8.248
			c2.336,3.144,5.104,5.912,8.248,8.248C149.104,258.336,146.336,261.104,144,264.248z"/>
	</g>
</g>
<g>
	<g>
		<path d="M456,0h-16c0,13.232-10.768,24-24,24v16c13.232,0,24,10.768,24,24h16c0-13.232,10.768-24,24-24V24
			C466.768,24,456,13.232,456,0z M448,40.248c-2.336-3.144-5.104-5.912-8.248-8.248c3.144-2.336,5.912-5.104,8.248-8.248
			c2.336,3.144,5.104,5.912,8.248,8.248C453.104,34.336,450.336,37.104,448,40.248z"/>
	</g>
</g>
<g>
	<g>
		<path d="M408,416h-16c0,13.232-10.768,24-24,24v16c13.232,0,24,10.768,24,24h16c0-13.232,10.768-24,24-24v-16
			C418.768,440,408,429.232,408,416z M400,456.248c-2.336-3.144-5.104-5.912-8.248-8.248c3.144-2.336,5.912-5.104,8.248-8.248
			c2.336,3.144,5.104,5.912,8.248,8.248C405.104,450.336,402.336,453.104,400,456.248z"/>
	</g>
</g>
<g>
	<g>
		<path d="M40,136H24c0,13.232-10.768,24-24,24v16c13.232,0,24,10.768,24,24h16c0-13.232,10.768-24,24-24v-16
			C50.768,160,40,149.232,40,136z M32,176.248c-2.336-3.144-5.104-5.912-8.248-8.248c3.144-2.336,5.912-5.104,8.248-8.248
			c2.336,3.144,5.104,5.912,8.248,8.248C37.104,170.336,34.336,173.104,32,176.248z"/>
	</g>
</g>
<g>
	<g>
		<path d="M144,0h-16c0,13.232-10.768,24-24,24v16c13.232,0,24,10.768,24,24h16c0-13.232,10.768-24,24-24V24
			C154.768,24,144,13.232,144,0z M136,40.248c-2.336-3.144-5.104-5.912-8.248-8.248c3.144-2.336,5.912-5.104,8.248-8.248
			c2.336,3.144,5.104,5.912,8.248,8.248C141.104,34.336,138.336,37.104,136,40.248z"/>
	</g>
</g>
<g>
	<g>
		<polygon points="144,128 144,112 128,112 128,128 112,128 112,144 128,144 128,160 144,160 144,144 160,144 160,128 		"/>
	</g>
</g>
<g>
	<g>
		<polygon points="464,264 464,248 448,248 448,264 432,264 432,280 448,280 448,296 464,296 464,280 480,280 480,264 		"/>
	</g>
</g>
<g>
</g>
<g>
</g>
<g>
</g>
<g>
</g>
<g>
</g>
<g>
</g>
<g>
</g>
<g>
</g>
<g>
</g>
<g>
</g>
<g>
</g>
<g>
</g>
<g>
</g>
<g>
</g>
<g>
</g>
</svg>
