<?xml version="1.0" encoding="iso-8859-1"?>
<!-- Generator: Adobe Illustrator 19.0.0, SVG Export Plug-In . SVG Version: 6.00 Build 0)  -->
<svg xmlns="http://www.w3.org/2000/svg" xmlns:xlink="http://www.w3.org/1999/xlink" version="1.1" id="Layer_1" x="0px" y="0px" viewBox="0 0 394.071 394.071" style="enable-background:new 0 0 394.071 394.071;" xml:space="preserve" width="512px" height="512px">
<g id="XMLID_16_">
	<path id="XMLID_17_" d="M347.036,0h-57.144H104.178H47.036c-8.284,0-15,6.716-15,15v57.143v100v57.143c0,8.284,6.716,15,15,15h15   v44.78c0,38.714,16.659,75.62,45.707,101.253c2.74,2.418,6.27,3.753,9.925,3.753l158.739-0.002c3.655,0,7.185-1.335,9.926-3.753   c29.044-25.634,45.702-62.538,45.702-101.25v-44.78h15.001c8.284,0,15-6.716,15-15v-57.143v-100V15   C362.036,6.716,355.32,0,347.036,0z M276.471,214.285H152.035v-4.999c0.001-12.021-4.68-23.322-13.18-31.821   c-8.499-8.5-19.8-13.18-31.819-13.18c-7.154,0-14.047,1.67-20.253,4.805c-7.54-4.992-15.92-8.498-24.747-10.364V85.563   C89.797,79.668,111.704,57.762,117.599,30h158.872c5.896,27.762,27.802,49.668,55.565,55.563v73.158   C304.273,164.617,282.367,186.523,276.471,214.285z M302.035,289.065c0,28.268-11.424,55.301-31.518,75.004l-146.958,0.002   c-20.1-19.703-31.522-46.734-31.522-75.006v-79.781c0-4.006,1.56-7.772,4.393-10.605c2.834-2.833,6.601-4.394,10.608-4.394   c4.006,0,7.772,1.56,10.605,4.393c2.833,2.833,4.393,6.6,4.393,10.607v50c0,8.284,6.716,15,15,15   c25.01,0,45.357,20.347,45.357,45.357c0,8.284,6.716,15,15,15c8.284,0,15-6.716,15-15c0-36.417-25.968-66.879-60.357-73.854v-1.503   h137.857h12.143V289.065z" fill="#75FF00"/>
	<path id="XMLID_21_" d="M197.036,79.023c-30.486,0-54.367,18.94-54.367,43.119c0,24.178,23.881,43.118,54.367,43.118   c30.485,0,54.365-18.94,54.365-43.118C251.401,97.964,227.521,79.023,197.036,79.023z" fill="#75FF00"/>
</g>
<g>
</g>
<g>
</g>
<g>
</g>
<g>
</g>
<g>
</g>
<g>
</g>
<g>
</g>
<g>
</g>
<g>
</g>
<g>
</g>
<g>
</g>
<g>
</g>
<g>
</g>
<g>
</g>
<g>
</g>
</svg>
